<?xml version="1.0" encoding="utf-8"?>
<!-- Generator: Adobe Illustrator 21.1.0, SVG Export Plug-In . SVG Version: 6.00 Build 0)  -->
<svg version="1.1" id="Capa_1" xmlns="http://www.w3.org/2000/svg" xmlns:xlink="http://www.w3.org/1999/xlink" x="0px" y="0px"
	 viewBox="0 0 512 512" style="enable-background:new 0 0 512 512;" xml:space="preserve">
<style type="text/css">
	.st0{fill:#D6C1D8;}
</style>
<g>
	<g>
		<path class="st0" d="M403.7,303.7c-40.4,4.3-18-27.6-27.7-39.9c-15.9,3.1-29.2,25.8-48.2,0.3c-14.7-19.7-40.6-35.5-34.9-62.1
			c12.5-58.5,40.2-79.3,100.6-84.4c2.7-10.4-19.1-11.1-9.3-25.3c18.4-26.4-4.5-33.2-20.3-29.6c-43.8,10.2-65.2-18.5-89.8-43.9
			c-5.7-5.9-11.4-12.5-18.5-16c-7.5-3.8-15.8-5.8-13.8,9.4c4.3,32.4-15.3,49.1-42.3,60.4c-17.2,7.3-36.9,12.1-41,34.6
			c-5.3,28.9-18.6,23.2-39.6,13.8c-17.1-7.7,7.2-23.1-12.6-27.1c-16.3,12.2-26.8,22.6-22.2,52.5c4.7,30.4,29.2,35.7,41.5,54.7
			c34.4,53.3,64.9,110.3,87.8,167.7c19.7,49.1,51.9,70.2,92,89.9c26.4,12.9,50.4,28,66.5,53.3c9.5,0,19,0,28.5,0
			c5.8-33.1,26.1-62,18.2-100.6c-2.8-13.6,1.6-41.2,9.2-62.3C433.6,333,415.3,302.5,403.7,303.7z"/>
	</g>
</g>
</svg>
