<svg id="ARTE" xmlns="http://www.w3.org/2000/svg" viewBox="0 0 83.24 55"><title>SANTOS RIZOS_af_logo_RGB</title><path d="M26.6,25.2l-8.78-5.86C14,17,11.62,14.78,11.62,11c0-4.43,3.27-7,7.76-7A10.47,10.47,0,0,1,27.15,7.5l4.36,9.87h1.09V5C23.3.74,2.7.47,2.7,16.08c0,5.58,3.13,8.37,7.76,11.44l9,6c4.83,3,6.6,5.58,6.6,9.33,0,4.63-3.34,7.62-8.31,7.62-4.43,0-7.76-2.79-10.48-6L3.59,35.68H2.5V48.35A24.39,24.39,0,0,0,16.8,52.5c11.92,0,17.7-8.24,17.7-15.11C34.5,32,32.11,28.67,26.6,25.2Z"/><path d="M68.67,32.9h0a4.86,4.86,0,0,0-3.25-2.37l-9.25-1.87c11.64-1,18.93-5.24,18.93-13.28,0-8.31-6.74-11.71-14-11.71H37.3V4.76l4.29.54V49.69l-4.29.54v1.09H56.09V50.24l-3.95-.54V28.79h3.27L67.06,51.33H80.74V50.24l-2.79-.54ZM54.6,27.5H52.15V5.31h0l0,0a13.75,13.75,0,0,1,4-.48l.12,0A6.1,6.1,0,0,1,57.91,5,5.07,5.07,0,0,1,60.24,6.3c.2.2.37.38.54.56C62.59,8.79,63.72,12,63.72,16,63.72,22.94,60.59,27.5,54.6,27.5Z"/></svg>